ply
format ascii 1.0
element vertex 468
property float x
property float y
property float z
property uchar red
property uchar green
property uchar blue
element face 852
property list uchar int vertex_index
end_header
316.3496971130371 315.8912944793701 -34.95999813079834 0 0 0
316.4389991760254 270.9162425994873 -59.141106605529785 1 0 0
317.02173233032227 285.3302478790283 -32.58650302886963 2 0 0
307.3361587524414 234.17781829833984 -42.187561988830566 3 0 0
316.3090133666992 258.7817573547363 -62.28198051452637 4 0 0
316.7210006713867 243.9287567138672 -57.213754653930664 5 0 0
318.0655288696289 209.50560092926025 -24.627256393432617 6 0 0
241.48170471191406 210.89710235595703 19.416271448135376 7 0 0
318.6185073852539 181.15885734558105 -15.026195049285889 8 0 0
318.74267578125 166.09477043151855 -15.98987102508545 9 0 0
318.9621162414551 119.94044780731201 -0.3934449702501297 10 0 0
316.1330032348633 322.31846809387207 -33.38956594467163 11 0 0
316.33235931396484 327.59900093078613 -29.588401317596436 12 0 0
316.50110244750977 330.02437591552734 -24.752178192138672 13 0 0
316.3751792907715 331.5962219238281 -25.448167324066162 14 0 0
316.2920570373535 337.1653461456299 -27.571821212768555 15 0 0
316.08301162719727 344.3063163757324 -30.23085117340088 16 0 0
316.1625289916992 351.7297554016113 -29.28502082824707 17 0 0
316.71621322631836 363.431396484375 -19.648268222808838 18 0 0
316.5093421936035 277.4831199645996 -53.75166416168213 19 0 0
305.5169486999512 277.60087966918945 -38.68978023529053 20 0 0
213.1049346923828 174.22240734100342 74.38145637512207 21 0 0
272.1890449523926 218.56355667114258 7.401561737060547 22 0 0
261.7814254760742 219.96002197265625 8.418774604797363 23 0 0
251.79140090942383 220.35258293151855 11.706870794296265 24 0 0
238.17276000976562 215.215802192688 20.843939781188965 25 0 0
280.7209014892578 215.3311014175415 8.726615309715271 26 0 0
257.9142761230469 192.1603488922119 4.7693005204200745 27 0 0
268.91353607177734 192.68500328063965 4.947758615016937 28 0 0
247.58031845092773 193.77018928527832 8.360775709152222 29 0 0
240.62721252441406 197.7709722518921 12.661622762680054 30 0 0
231.18879318237305 223.0004596710205 25.96569538116455 31 0 0
274.06604766845703 380.45016288757324 -4.630995094776154 32 0 0
237.74398803710938 208.50997924804688 22.9140567779541 33 0 0
206.6006851196289 220.12282848358154 74.95252132415771 34 0 0
221.04171752929688 215.39932250976562 37.69041061401367 35 0 0
262.5593948364258 265.9251880645752 -6.125584244728088 36 0 0
301.9050979614258 313.61884117126465 -33.12187671661377 37 0 0
304.33605194091797 327.2991943359375 -27.62535810470581 38 0 0
287.3865509033203 317.77204513549805 -26.03708028793335 39 0 0
278.7363815307617 323.2901859283447 -17.435383796691895 40 0 0
294.0650749206543 328.1231117248535 -22.860519886016846 41 0 0
286.2271308898926 329.4920539855957 -15.044041872024536 42 0 0
264.8051643371582 342.2856903076172 -1.4377053081989288 43 0 0
306.7283630371094 270.7347106933594 -58.03466796875 44 0 0
305.0356674194336 259.3308448791504 -60.89000225067139 45 0 0
226.280517578125 184.64660167694092 17.355077266693115 46 0 0
284.3749809265137 236.56541347503662 -6.112199425697327 47 0 0
279.59354400634766 270.0259780883789 -30.445001125335693 48 0 0
278.6758041381836 264.3247890472412 -26.786603927612305 49 0 0
233.57635498046875 265.9501361846924 9.025532603263855 50 0 0
306.0293960571289 245.47101974487305 -53.60889911651611 51 0 0
248.83611679077148 171.05552673339844 -0.906234011054039 52 0 0
235.32146453857422 175.6263256072998 7.566635608673096 53 0 0
221.5269660949707 154.07230854034424 54.322733879089355 54 0 0
294.46327209472656 178.70490074157715 -11.49272084236145 55 0 0
278.7982940673828 195.7915449142456 7.785247564315796 56 0 0
256.9723320007324 330.8048629760742 2.0656557381153107 57 0 0
214.84737396240234 323.5462760925293 97.5096607208252 58 0 0
287.9408264160156 276.2186336517334 -26.857986450195312 59 0 0
297.549991607666 280.2561664581299 -28.357038497924805 60 0 0
268.6922836303711 331.9642639160156 0.8013896644115448 61 0 0
273.9651870727539 331.05113983154297 -2.4627257883548737 62 0 0
230.4641342163086 168.68239402770996 13.223766088485718 63 0 0
279.37225341796875 276.0248851776123 -24.698641300201416 64 0 0
267.6810073852539 170.92503547668457 -7.597866058349609 65 0 0
266.0150909423828 162.0194435119629 -9.226298332214355 66 0 0
259.4979667663574 126.75248622894287 13.866217136383057 67 0 0
225.9575653076172 161.1635971069336 30.980377197265625 68 0 0
263.9665222167969 144.05176162719727 2.053386867046356 69 0 0
221.23733520507812 180.34599781036377 26.982908248901367 70 0 0
217.21485137939453 178.03330421447754 49.432973861694336 71 0 0
302.98851013183594 321.45984649658203 -31.676363945007324 72 0 0
291.0212707519531 323.8724613189697 -25.00201940536499 73 0 0
282.48329162597656 326.5338706970215 -17.149851322174072 74 0 0
290.9678077697754 278.8989543914795 -24.57371950149536 75 0 0
271.4031791687012 331.79245948791504 -0.9235221147537231 76 0 0
275.9928512573242 333.74213218688965 -8.494619727134705 77 0 0
275.3820610046387 330.0365352630615 -2.8798723220825195 78 0 0
294.1671371459961 271.01202964782715 -41.652188301086426 79 0 0
288.7921905517578 329.0362358093262 -13.321918249130249 80 0 0
296.78972244262695 329.2361068725586 -18.64890217781067 81 0 0
306.21484756469727 329.4207000732422 -23.092515468597412 82 0 0
301.289119720459 362.7400016784668 -18.666746616363525 83 0 0
301.58586502075195 350.45817375183105 -28.000121116638184 84 0 0
302.36289978027344 343.02555084228516 -28.731801509857178 85 0 0
303.57126235961914 335.87388038635254 -25.805082321166992 86 0 0
304.949893951416 331.29029273986816 -23.788504600524902 87 0 0
286.52793884277344 330.9165573120117 -13.67883563041687 88 0 0
284.54919815063477 332.7938175201416 -15.775721073150635 89 0 0
281.7322540283203 336.3933849334717 -17.587074041366577 90 0 0
279.20848846435547 340.7036590576172 -15.641876459121704 91 0 0
269.72631454467773 308.53809356689453 -13.491454124450684 92 0 0
206.48433685302734 269.2386245727539 116.71178817749023 93 0 0
316.6842269897461 280.4795265197754 -39.5820689201355 94 0 0
281.3886260986328 330.9716033935547 -7.3524850606918335 95 0 0
278.9724349975586 331.9969081878662 -8.619540333747864 96 0 0
301.60688400268555 285.78091621398926 -29.64193820953369 97 0 0
283.59636306762695 283.8322448730469 -17.631689310073853 98 0 0
299.72347259521484 283.231143951416 -29.10656452178955 99 0 0
273.3147621154785 243.67987632751465 -2.4805715680122375 100 0 0
256.6976547241211 251.85327529907227 0.8487927168607712 101 0 0
277.16665267944336 270.0519561767578 -20.843939781188965 102 0 0
235.91629028320312 137.85598754882812 32.568655014038086 103 0 0
240.5362892150879 149.29986476898193 15.624032020568848 104 0 0
245.46014785766602 162.45380401611328 1.5949718654155731 105 0 0
274.31285858154297 350.1792526245117 -7.914628982543945 106 0 0
291.4521026611328 164.17412281036377 -14.919120073318481 107 0 0
289.373722076416 143.4226369857788 -6.063123941421509 108 0 0
286.42656326293945 121.5382719039917 2.580954432487488 109 0 0
243.1376838684082 218.87476444244385 16.543092727661133 110 0 0
221.07025146484375 231.38980865478516 31.872665882110596 111 0 0
286.2533187866211 211.9880247116089 10.350586175918579 112 0 0
230.52345275878906 200.87748527526855 22.325143814086914 113 0 0
292.14412689208984 228.7723445892334 -9.904440641403198 114 0 0
286.67335510253906 264.52466011047363 -41.0811185836792 115 0 0
211.09142303466797 239.49209690093994 43.54384422302246 116 0 0
227.07578659057617 238.89254093170166 21.50423526763916 117 0 0
239.46416854858398 242.47198104858398 10.984114408493042 118 0 0
258.9945602416992 239.69281196594238 5.799897909164429 119 0 0
273.4993362426758 234.25475120544434 3.2769420742988586 120 0 0
284.57332611083984 228.42511653900146 0.6229313090443611 121 0 0
307.24952697753906 212.7625036239624 -20.344254970550537 122 0 0
211.62315368652344 262.4731636047363 39.26084280014038 123 0 0
223.00724029541016 198.95915508270264 27.96442747116089 124 0 0
310.65013885498047 276.9748020172119 -53.002142906188965 125 0 0
284.20570373535156 247.41811752319336 -11.66225552558899 126 0 0
206.32587432861328 221.12518787384033 111.14388465881348 127 0 0
292.78602600097656 222.05504894256592 -0.675911158323288 128 0 0
276.46814346313477 271.4871883392334 -10.011515617370605 129 0 0
234.96631622314453 209.1108512878418 25.037710666656494 130 0 0
286.03044509887695 257.82114028930664 -36.53043031692505 131 0 0
208.8372802734375 295.6267833709717 110.0731372833252 132 0 0
285.92498779296875 207.99383640289307 13.446840047836304 133 0 0
295.8012580871582 250.29218673706055 -47.11301326751709 134 0 0
231.99413299560547 351.4892578125 38.43993663787842 135 0 0
233.7021255493164 364.32068824768066 56.96391582489014 136 0 0
204.23797607421875 266.12165451049805 77.87923812866211 137 0 0
221.18276596069336 335.1859474182129 53.002142906188965 138 0 0
211.99954986572266 197.64933586120605 65.3514575958252 139 0 0
271.77066802978516 392.75339126586914 1.1532872915267944 140 0 0
311.96861267089844 280.10169982910156 -38.79685401916504 141 0 0
274.7372245788574 256.514368057251 -8.03955078125 142 0 0
213.64734649658203 218.1912660598755 48.57637405395508 143 0 0
252.28595733642578 213.20855140686035 12.81331181526184 144 0 0
261.5683364868164 213.39464664459229 10.10074496269226 145 0 0
272.87817001342773 336.20266914367676 -6.536038517951965 146 0 0
213.57637405395508 284.86790657043457 41.50941848754883 147 0 0
292.5175476074219 410.23521423339844 2.558647096157074 148 0 0
260.05531311035156 392.0222568511963 26.286921501159668 149 0 0
247.43852615356445 380.4498767852783 39.79621887207031 150 0 0
318.786563873291 143.53586196899414 -8.731076121330261 151 0 0
317.105655670166 413.11288833618164 -1.086365357041359 152 0 0
270.2674102783203 212.44481563568115 9.60106074810028 153 0 0
278.3832550048828 210.35902976989746 10.948421955108643 154 0 0
283.50879669189453 209.0191411972046 13.321918249130249 155 0 0
217.21023559570312 197.5935173034668 39.189462661743164 156 0 0
277.3074722290039 203.23179244995117 9.68136727809906 157 0 0
268.1571578979492 202.04485416412354 7.950320839881897 158 0 0
259.1603088378906 201.8556833267212 8.494619727134705 159 0 0
249.7535514831543 203.3842134475708 11.189340353012085 160 0 0
243.8520050048828 205.58904647827148 14.571126699447632 161 0 0
208.4759521484375 195.25990962982178 95.43953895568848 162 0 0
245.9923553466797 212.13375091552734 16.293251514434814 163 0 0
316.69591903686523 294.89965438842773 -31.087450981140137 164 0 0
278.7848663330078 301.15954399108887 -19.523346424102783 165 0 0
287.7735900878906 273.9360237121582 -30.534229278564453 166 0 0
300.5795097351074 296.5000534057617 -29.99885320663452 167 0 0
318.48974227905273 195.794677734375 -15.677570104598999 168 0 0
244.228515625 367.34896659851074 26.643836498260498 169 0 0
257.0716667175293 380.0611209869385 14.544358253479004 170 0 0
291.5722846984863 401.9643974304199 -10.44873833656311 171 0 0
223.51940155029297 346.7256546020508 78.09338569641113 172 0 0
283.3323860168457 205.87998390197754 11.983480453491211 173 0 0
299.01641845703125 230.55479049682617 -25.216169357299805 174 0 0
316.8741798400879 404.8344039916992 -13.732372522354126 175 0 0
274.5870780944824 402.43191719055176 12.233322858810425 176 0 0
206.85501098632812 290.5081272125244 74.95252132415771 177 0 0
294.9506950378418 330.82632064819336 -19.166430234909058 178 0 0
292.8460121154785 334.2754554748535 -21.4150071144104 179 0 0
290.7627487182617 339.7232437133789 -23.627891540527344 180 0 0
289.1230583190918 346.59399032592773 -22.342989444732666 181 0 0
286.09554290771484 357.19176292419434 -14.580050706863403 182 0 0
279.09685134887695 330.2822685241699 -8.110933899879456 183 0 0
275.5171775817871 329.32119369506836 -7.99939751625061 184 0 0
272.07109451293945 327.5020694732666 -7.941398024559021 185 0 0
261.69918060302734 318.9038944244385 -5.429596304893494 186 0 0
226.20182037353516 290.58640480041504 19.255659580230713 187 0 0
299.90407943725586 220.12271404266357 -14.258825778961182 188 0 0
294.6903610229492 199.90453720092773 5.911433696746826 189 0 0
288.149471282959 202.40178108215332 10.18997311592102 190 0 0
281.79548263549805 328.9684009552002 -7.107105255126953 191 0 0
224.93122100830078 318.58391761779785 33.6572527885437 192 0 0
304.0971374511719 198.37602138519287 -8.110933899879456 193 0 0
279.79068756103516 368.3957290649414 -8.940765261650085 194 0 0
317.30785369873047 232.07214832305908 -46.07795715332031 195 0 0
306.9420623779297 224.04501914978027 -32.19389200210571 196 0 0
317.6198959350586 221.2179136276245 -34.87076759338379 197 0 0
290.21379470825195 248.49595069885254 -26.14415407180786 198 0 0
316.73961639404297 392.2716522216797 -19.36273455619812 199 0 0
316.85997009277344 376.85068130493164 -19.434118270874023 200 0 0
297.28368759155273 375.3470993041992 -16.641244888305664 201 0 0
254.9976348876953 346.38845443725586 4.764838814735413 202 0 0
268.14937591552734 281.28501892089844 -7.655864953994751 203 0 0
265.84217071533203 359.12203788757324 -1.6351249814033508 204 0 0
247.00429916381836 279.94099617004395 -2.1147318184375763 205 0 0
259.42529678344727 293.228759765625 -5.938202738761902 206 0 0
238.49945068359375 299.0211582183838 5.822204947471619 207 0 0
293.29662322998047 389.66729164123535 -15.82925796508789 208 0 0
283.1523323059082 255.71036338806152 -18.702439069747925 209 0 0
246.59221649169922 354.759464263916 14.838814735412598 210 0 0
259.8014450073242 368.3243465423584 6.344195604324341 211 0 0
247.19642639160156 331.19513511657715 7.25879430770874 212 0 0
216.28263473510742 304.25628662109375 44.2219877243042 213 0 0
235.64369201660156 332.31831550598145 18.247370719909668 214 0 0
211.8836212158203 313.4409999847412 68.77786159515381 215 0 0
251.60362243652344 309.4461250305176 -1.0936153680086136 216 0 0
291.6801452636719 238.77156257629395 -17.952914237976074 217 0 0
290.43554306030273 269.19593811035156 -43.65091800689697 218 0 0
283.0564498901367 273.41546058654785 -31.9797420501709 219 0 0
295.20368576049805 261.1494827270508 -51.25324726104736 220 0 0
285.87657928466797 190.14750480651855 3.1877130270004272 221 0 0
268.8263702392578 184.54776763916016 1.7622765898704529 222 0 0
254.25506591796875 183.7758207321167 2.6188769936561584 223 0 0
242.35614776611328 185.90214729309082 7.138335108757019 224 0 0
234.3484115600586 191.4133644104004 13.85729432106018 225 0 0
229.07241821289062 212.02946662902832 29.55270767211914 226 0 0
203.91727447509766 242.852783203125 76.80848598480225 227 0 0
236.16291046142578 227.51598358154297 20.076568126678467 228 0 0
246.47056579589844 230.11826992034912 13.188074827194214 229 0 0
260.0234603881836 229.11643981933594 8.494619727134705 230 0 0
273.1235885620117 225.83506107330322 6.24604344367981 231 0 0
283.35784912109375 221.58493995666504 6.232659220695496 232 0 0
290.45448303222656 217.6539945602417 5.5812859535217285 233 0 0
206.43848419189453 244.96739387512207 117.49700546264648 234 0 0
283.38172912597656 277.12411880493164 -26.697373390197754 235 0 0
298.40354919433594 239.98450756072998 -34.62092876434326 236 0 0
298.57431411743164 269.2515277862549 -52.43107318878174 237 0 0
305.06420135498047 275.3213310241699 -48.469295501708984 238 0 0
298.7384796142578 271.24860763549805 -47.148704528808594 239 0 0
286.9950294494629 281.2258815765381 -23.395893573760986 240 0 0
307.21628189086914 276.2976837158203 -51.46739959716797 241 0 0
308.2492256164551 279.4276714324951 -38.72546911239624 242 0 0
289.92834091186523 208.52205276489258 11.653332710266113 243 0 0
296.2403106689453 211.3099193572998 4.755915999412537 244 0 0
299.39781188964844 212.84661769866943 -3.1631746888160706 245 0 0
240.37277221679688 207.33962059020996 18.202755451202393 246 0 0
235.606689453125 202.25077629089355 18.952280282974243 247 0 0
327.32234954833984 233.96371364593506 -42.54447937011719 248 0 0
398.30345153808594 209.3599033355713 16.935701370239258 249 0 0
328.07430267333984 277.50200271606445 -38.939619064331055 250 0 0
428.46153259277344 172.4150848388672 70.63383102416992 251 0 0
366.55242919921875 217.55267143249512 5.844511985778809 252 0 0
376.98909759521484 218.86861324310303 6.567268371582031 253 0 0
387.27230072021484 219.1867733001709 9.449371695518494 254 0 0
401.77555084228516 213.60596179962158 18.3098304271698 0 1 0
357.9547882080078 214.6465015411377 7.4550992250442505 1 1 0
381.1087417602539 190.26949882507324 2.9155638813972473 2 1 0
369.69799041748047 191.3197660446167 3.4174779057502747 3 1 0
391.8324661254883 191.7251443862915 6.192505955696106 4 1 0
399.0132141113281 195.64593315124512 10.332740545272827 5 1 0
408.7151336669922 221.66979789733887 23.092515468597412 6 1 0
361.0151672363281 380.3753471374512 -5.848973393440247 7 1 0
402.2716522216797 206.60468101501465 20.37994623184204 8 1 0
435.52467346191406 218.66987228393555 70.99074840545654 9 1 0
419.4837188720703 213.98736476898193 34.44246768951416 10 1 0
374.06299591064453 265.58735847473145 -7.678172588348389 11 1 0
330.74535369873047 313.59543800354004 -33.5501766204834 12 1 0
328.4653091430664 327.3262596130371 -27.98227548599243 13 1 0
345.78243255615234 317.86036491394043 -26.965062618255615 14 1 0
354.69310760498047 323.3331298828125 -18.73813033103943 15 1 0
339.1813659667969 328.06812286376953 -23.627891540527344 16 1 0
347.33543395996094 329.55127716064453 -16.034486293792725 17 1 0
369.6021270751953 342.30525970458984 -3.0494076013565063 18 1 0
326.1435317993164 270.5267143249512 -58.2131290435791 19 1 0
328.0213165283203 259.22739028930664 -61.139841079711914 20 1 0
413.71707916259766 182.13895797729492 14.374823570251465 21 1 0
352.4753952026367 236.26420497894287 -7.098181843757629 22 1 0
355.2632141113281 269.9292182922363 -31.444365978240967 23 1 0
356.4853286743164 264.0623474121094 -27.839508056640625 24 1 0
404.61483001708984 265.40282249450684 6.464654803276062 25 1 0
327.73021697998047 245.38135528564453 -53.965816497802734 26 1 0
390.15941619873047 168.82769107818604 -2.8977179527282715 27 1 0
404.19715881347656 173.10333251953125 5.161908864974976 28 1 0
419.3940734863281 152.30956077575684 50.86063861846924 29 1 0
343.1416320800781 177.96927452087402 -11.965634822845459 30 1 0
359.8835754394531 194.78013038635254 6.527115106582642 31 1 0
377.7598190307617 330.7958793640137 0.1417210604995489 32 1 0
426.6495132446289 323.13337326049805 93.86911392211914 33 1 0
346.7649841308594 276.30234718322754 -27.60751247406006 34 1 0
336.81468963623047 280.4066276550293 -28.76749038696289 35 1 0
365.3505325317383 331.92821502685547 -0.9274259209632874 36 1 0
359.9149703979492 330.98705291748047 -3.9327767491340637 37 1 0
409.2622756958008 166.12449645996094 10.564736127853394 38 1 0
355.89847564697266 275.91894149780273 -25.76939105987549 39 1 0
370.60455322265625 169.3227481842041 -8.86938214302063 40 1 0
372.22206115722656 160.38196563720703 -10.609351396560669 41 1 0
379.4166564941406 125.61059474945068 11.813945770263672 42 1 0
414.32586669921875 159.0028953552246 28.03581476211548 43 1 0
374.74559783935547 142.7222442626953 0.3705799952149391 44 1 0
419.0975570678711 177.9408359527588 23.842041492462158 45 1 0
423.64444732666016 175.8932876586914 46.00656986236572 46 1 0
329.8301696777344 321.4578437805176 -32.033278942108154 47 1 0
342.13645935058594 324.0387439727783 -25.805082321166992 48 1 0
351.0150146484375 326.51355743408203 -18.291983604431152 49 1 0
343.79459381103516 278.9041042327881 -25.216169357299805 50 1 0
362.34954833984375 331.67484283447266 -2.6010307669639587 51 1 0
357.659912109375 333.7239074707031 -9.833057522773743 52 1 0
358.62098693847656 330.1442527770996 -4.274078607559204 53 1 0
339.5674133300781 270.811243057251 -42.40171432495117 54 1 0
345.045166015625 329.0047073364258 -14.258825778961182 55 1 0
336.9094467163086 329.234619140625 -19.36273455619812 56 1 0
327.0606231689453 329.4829273223877 -23.467278480529785 57 1 0
332.4104690551758 362.40660667419434 -18.952280282974243 58 1 0
331.1399459838867 350.42713165283203 -28.30350160598755 59 1 0
330.2008056640625 342.7273464202881 -29.088716506958008 60 1 0
329.12654876708984 335.7428741455078 -26.05492353439331 61 1 0
328.079833984375 331.32808685302734 -24.002654552459717 62 1 0
347.0636749267578 330.83913803100586 -14.669278860092163 63 1 0
348.79512786865234 332.5338935852051 -16.7393958568573 64 1 0
351.54727935791016 336.21657371520996 -18.595364093780518 65 1 0
354.16282653808594 340.4718017578125 -16.605552434921265 66 1 0
364.9569320678711 308.5173797607422 -14.99050498008728 67 1 0
436.05533599853516 268.2070541381836 112.50016212463379 68 1 0
352.49000549316406 330.92382431030273 -8.615078926086426 69 1 0
354.78485107421875 331.89863204956055 -9.886595010757446 70 1 0
332.4473190307617 285.8788776397705 -30.105929374694824 71 1 0
351.70135498046875 283.9593029022217 -18.47044348716736 72 1 0
334.5611572265625 283.28627586364746 -29.517016410827637 73 1 0
363.8297653198242 243.28130722045898 -3.761010468006134 74 1 0
380.7655334472656 251.5235996246338 -0.9330027550458908 75 1 0
358.2626724243164 270.0398540496826 -22.039611339569092 76 1 0
404.08809661865234 136.26859188079834 29.69547748565674 77 1 0
399.0680694580078 147.4588108062744 13.214843273162842 78 1 0
393.49464416503906 160.29687881469727 -0.3934449702501297 79 1 0
359.9771499633789 350.1182270050049 -9.145991802215576 80 1 0
346.268310546875 163.30135345458984 -15.481264591217041 81 1 0
348.6185073852539 142.78796195983887 -6.839417815208435 82 1 0
351.8107223510742 120.90920448303223 1.5693184733390808 83 1 0
396.39354705810547 217.6613187789917 14.01790738105774 84 1 0
419.08702850341797 230.2679443359375 28.678264617919922 85 1 0
352.49481201171875 211.42115592956543 9.253066778182983 86 1 0
409.8979949951172 198.81314277648926 19.39842700958252 87 1 0
344.68231201171875 228.4950828552246 -10.698579549789429 88 1 0
347.49462127685547 264.4442081451416 -41.93771839141846 89 1 0
429.45281982421875 238.2950735092163 39.86760377883911 90 1 0
412.315673828125 237.90756225585938 18.559671640396118 91 1 0
398.93611907958984 241.76301956176758 8.42769742012024 92 1 0
378.91937255859375 239.1219663619995 4.022005796432495 93 1 0
364.2983627319336 233.71038436889648 1.9641576707363129 94 1 0
352.9592514038086 228.1208610534668 -0.40822356939315796 95 1 0
329.0930938720703 212.67127990722656 -20.701172351837158 96 1 0
428.2760238647461 261.72277450561523 35.67383050918579 97 1 0
417.30308532714844 197.02051162719727 24.859254360198975 98 1 0
322.3578643798828 276.9921398162842 -53.180599212646484 99 1 0
352.02213287353516 247.2627353668213 -12.652698755264282 100 1 0
436.39190673828125 219.66000080108643 107.0036506652832 101 1 0
344.6089172363281 221.64266109466553 -1.4555512368679047 102 1 0
359.27574157714844 271.3139820098877 -11.028728485107422 103 1 0
405.4184341430664 207.1420669555664 22.37868070602417 104 1 0
348.70601654052734 257.5780391693115 -37.40487813949585 105 1 0
433.1991195678711 294.79379653930664 106.21843338012695 106 1 0
353.0229949951172 207.4178123474121 12.269014120101929 107 1 0
338.3463668823242 250.12195587158203 -47.71976947784424 108 1 0
406.1064910888672 351.3373374938965 35.620293617248535 109 1 0
405.3875732421875 364.19477462768555 54.00150775909424 110 1 0
436.8782424926758 265.0572109222412 73.88177394866943 111 1 0
418.2093811035156 334.9313735961914 49.78989124298096 112 1 0
429.5696258544922 195.88969230651855 61.67521953582764 113 1 0
363.43082427978516 392.62813568115234 -0.05507114343345165 114 1 0
321.53343200683594 279.99924659729004 -38.939619064331055 115 1 0
361.8275451660156 256.2952709197998 -9.1549152135849 116 1 0
427.50877380371094 216.75689220428467 45.07858753204346 117 1 0
386.90879821777344 211.90914630889893 10.7075035572052 118 1 0
377.4897766113281 212.29559898376465 8.213547468185425 119 1 0
360.8266067504883 336.1171531677246 -7.928013801574707 120 1 0
425.9464645385742 284.16337966918945 38.154404163360596 121 1 0
342.06085205078125 410.2756118774414 1.9753111898899078 122 1 0
376.5615463256836 392.20190048217773 24.430954456329346 123 1 0
390.4295349121094 380.63135147094727 37.44056940078735 124 1 0
368.62804412841797 211.39111518859863 7.923552393913269 125 1 0
360.6121826171875 209.4781494140625 9.592138528823853 126 1 0
355.4606246948242 208.39111804962158 12.06378698348999 127 1 0
423.5691833496094 195.52564144134521 35.798752307891846 128 1 0
361.8205261230469 202.3264503479004 8.226931691169739 129 1 0
370.6547164916992 200.6612777709961 6.241582036018372 130 1 0
379.7882080078125 200.27790069580078 6.71003520488739 131 1 0
389.5095443725586 201.45873069763184 9.07014787197113 132 1 0
395.67264556884766 203.67708206176758 12.295782566070557 133 1 0
433.8294219970703 193.70242595672607 91.37068748474121 134 1 0
393.6077117919922 210.83796501159668 13.964369297027588 135 1 0
355.8836364746094 301.1902713775635 -20.683326721191406 136 1 0
346.7389678955078 273.87545585632324 -31.248064041137695 137 1 0
333.13148498535156 296.43688201904297 -30.480692386627197 138 1 0
393.0012512207031 367.4685287475586 24.3774151802063 139 1 0
379.1455078125 380.1811408996582 12.661622762680054 140 1 0
342.8287124633789 401.9864273071289 -11.073342561721802 141 1 0
416.61865234375 346.3703727722168 74.73837375640869 142 1 0
355.7124710083008 205.24738311767578 10.698579549789429 143 1 0
336.7076873779297 230.43657302856445 -25.805082321166992 144 1 0
360.96824645996094 402.64875411987305 10.841346979141235 145 1 0
434.00062561035156 289.645299911499 71.09782218933105 146 1 0
338.3538818359375 330.78969955444336 -19.8802649974823 147 1 0
340.2449035644531 334.0532684326172 -22.093148231506348 148 1 0
342.3016357421875 339.4566535949707 -24.270341396331787 149 1 0
343.9453887939453 346.29223823547363 -23.038978576660156 150 1 0
347.9160690307617 357.1006107330322 -15.374189615249634 151 1 0
354.76802825927734 330.32827377319336 -9.44044828414917 152 1 0
358.1835174560547 329.29229736328125 -9.609984159469604 153 1 0
361.58985137939453 327.39973068237305 -9.645676016807556 154 1 0
372.7775573730469 318.856143951416 -7.379254102706909 155 1 0
412.01732635498047 290.0236129760742 16.48955464363098 156 1 0
336.7373275756836 219.87091541290283 -14.883430004119873 157 1 0
343.51531982421875 199.52427864074707 5.121755599975586 158 1 0
350.53646087646484 201.87623977661133 9.065685868263245 159 1 0
352.0403289794922 328.92977714538574 -8.441082239151001 160 1 0
413.4621810913086 318.2775592803955 30.76622724533081 161 1 0
333.2198715209961 198.0640411376953 -8.597232699394226 162 1 0
354.8908233642578 368.4478569030762 -9.850903153419495 163 1 0
328.50013732910156 223.9568567276001 -32.58650302886963 164 1 0
345.1803970336914 248.33544731140137 -26.91152334213257 165 1 0
336.8308639526367 375.20899772644043 -17.069544792175293 166 1 0
380.35186767578125 346.18778228759766 3.0070239305496216 167 1 0
367.6627731323242 281.21838569641113 -8.985379338264465 168 1 0
369.2115783691406 359.15685653686523 -3.0315619707107544 169 1 0
390.0605773925781 279.5506954193115 -4.113465845584869 170 1 0
376.2139892578125 293.11986923217773 -7.709402441978455 171 1 0
398.6897659301758 298.732852935791 3.4353238344192505 172 1 0
340.9810256958008 389.44204330444336 -16.47170901298523 173 1 0
352.5406265258789 255.68089485168457 -19.648268222808838 174 1 0
389.72293853759766 354.65389251708984 12.706236839294434 175 1 0
375.87940216064453 368.5085964202881 4.711301326751709 176 1 0
388.6140441894531 331.10790252685547 4.974527359008789 177 1 0
423.01685333251953 303.8976860046387 40.97404479980469 178 1 0
401.331787109375 332.11389541625977 15.668646097183228 179 1 0
428.53954315185547 312.97614097595215 65.13731002807617 180 1 0
383.9545440673828 309.31328773498535 -3.236788809299469 181 1 0
344.21985626220703 238.63705158233643 -18.666746616363525 182 1 0
343.40354919433594 269.05683517456055 -44.436140060424805 183 1 0
351.5866470336914 273.2524108886719 -32.88987874984741 184 1 0
338.3213424682617 261.11589431762695 -51.9313907623291 185 1 0
352.54478454589844 189.43330764770508 2.057848274707794 186 1 0
369.7528076171875 183.10964584350586 0.32178275287151337 187 1 0
384.5874786376953 181.80853843688965 0.7740632444620132 188 1 0
396.8868637084961 183.74699592590332 4.720224142074585 189 1 0
405.51048278808594 189.08005714416504 11.207185983657837 190 1 0
411.44947052001953 210.3612756729126 26.590299606323242 191 1 0
437.7695083618164 241.6325855255127 72.81102180480957 192 1 0
403.3392333984375 226.2961721420288 17.39969253540039 193 1 0
392.3773956298828 229.26910400390625 10.957344770431519 194 1 0
378.3763885498047 228.4196662902832 6.629729270935059 195 1 0
365.2058792114258 225.1341676712036 4.80053037405014 196 1 0
354.88292694091797 221.10427379608154 5.099448561668396 197 1 0
347.7021789550781 217.18351364135742 4.635456800460815 198 1 0
436.36486053466797 243.78925323486328 113.42815399169922 199 1 0
351.3424301147461 277.109956741333 -27.589664459228516 200 1 0
336.52313232421875 239.86169815063477 -35.263378620147705 201 1 0
334.83802795410156 269.148588180542 -52.96644687652588 202 1 0
328.33690643310547 275.35755157470703 -48.7548303604126 203 1 0
334.8594284057617 271.14721298217773 -47.71976947784424 204 1 0
347.96207427978516 281.4294147491455 -24.181110858917236 205 1 0
326.20471954345703 276.23705863952637 -51.68154716491699 206 1 0
325.23902893066406 279.3884468078613 -38.939619064331055 207 1 0
348.88912200927734 208.03318977355957 10.591504573822021 208 1 0
341.92455291748047 210.96330642700195 3.9952370524406433 209 1 0
338.08841705322266 212.71770000457764 -3.656166195869446 210 1 0
399.40269470214844 205.35043716430664 15.847104787826538 211 1 0
404.7724914550781 200.15301704406738 16.34678840637207 212 1 0
3 127 34 139
3 11 0 37
3 232 231 120
3 72 37 39
3 128 121 47
3 232 121 128
3 104 69 67
3 175 171 148
3 118 50 101
3 73 39 40
3 9 151 108
3 48 115 131
3 194 204 211
3 74 40 185
3 80 42 183
3 40 92 186
3 230 229 118
3 202 212 214
3 83 18 17
3 76 61 146
3 160 29 30
3 56 157 173
3 106 204 194
3 135 214 192
3 203 165 98
3 21 71 68
3 51 45 4
3 144 24 23
3 77 146 91
3 205 50 187
3 201 200 18
3 91 106 182
3 90 91 181
3 85 84 17
3 206 203 36
3 148 171 140
3 92 40 39
3 193 189 244
3 159 158 28
3 247 246 161
3 236 3 196
3 54 68 104
3 193 168 8
3 117 228 31
3 189 193 55
3 98 97 99
3 126 47 100
3 166 79 218
3 155 154 26
3 209 49 131
3 135 136 150
3 47 126 217
3 223 52 53
3 45 51 134
3 211 170 140
3 67 69 108
3 43 106 91
3 230 119 120
3 226 130 247
3 63 53 52
3 238 20 242
3 46 70 156
3 78 62 96
3 46 53 63
3 143 34 227
3 123 117 111
3 44 125 19
3 236 134 51
3 216 206 205
3 154 153 22
3 39 37 167
3 200 201 208
3 36 142 100
3 57 212 202
3 20 60 99
3 28 158 157
3 35 226 113
3 160 159 27
3 204 202 210
3 113 225 46
3 43 202 204
3 62 76 77
3 137 123 116
3 41 38 72
3 203 129 142
3 64 98 240
3 49 102 64
3 41 73 74
3 212 216 207
3 42 74 184
3 169 170 211
3 170 149 176
3 105 66 69
3 122 6 168
3 123 147 187
3 96 77 90
3 65 55 107
3 89 90 180
3 101 100 120
3 63 105 104
3 93 137 227
3 15 86 85
3 129 102 49
3 14 87 86
3 55 8 9
3 100 47 121
3 145 23 22
3 88 89 179
3 6 122 196
3 88 95 96
3 138 172 136
3 215 58 172
3 115 48 219
3 42 80 81
3 195 3 51
3 43 146 61
3 171 175 199
3 81 82 38
3 53 46 225
3 144 163 110
3 52 65 66
3 229 228 117
3 34 127 234
3 107 108 69
3 109 108 151
3 48 64 235
3 62 78 191
3 129 209 126
3 111 35 143
3 117 123 50
3 222 65 52
3 19 125 141
3 221 55 65
3 3 195 197
3 25 7 33
3 220 237 44
3 70 71 139
3 122 193 245
3 247 130 33
3 71 21 162
3 170 169 150
3 188 174 196
3 216 186 92
3 2 97 167
3 141 125 241
3 164 167 37
3 72 38 12
3 38 82 13
3 63 68 71
3 226 35 111
3 101 50 205
3 206 92 165
3 209 198 217
3 165 167 97
3 220 115 218
3 133 112 243
3 239 238 241
3 214 135 169
3 190 173 133
3 171 208 32
3 125 44 237
3 86 87 178
3 85 86 179
3 84 85 180
3 83 84 181
3 201 83 182
3 137 93 132
3 76 62 183
3 61 76 184
3 57 61 185
3 212 57 186
3 214 207 187
3 34 143 156
3 79 239 237
3 123 137 177
3 44 1 4
3 201 194 32
3 64 102 129
3 213 215 138
3 59 166 219
3 242 99 97
3 2 94 141
3 75 59 235
3 24 110 228
3 25 130 226
3 23 24 229
3 22 23 230
3 26 22 231
3 112 26 232
3 189 190 243
3 221 56 190
3 28 56 221
3 27 28 222
3 29 27 223
3 30 29 224
3 247 30 225
3 238 79 20
3 166 59 75
3 60 75 240
3 147 177 215
3 20 79 166
3 187 147 213
3 112 233 244
3 233 128 245
3 128 114 188
3 114 217 174
3 131 115 220
3 217 198 236
3 198 131 134
3 177 132 58
3 143 35 124
3 110 163 7
3 228 110 25
3 356 389 368
3 11 302 267
3 452 350 349
3 302 303 269
3 357 343 277
3 452 453 357
3 333 332 297
3 175 152 377
3 347 348 330
3 303 304 270
3 9 336 337
3 278 279 360
3 418 262 431
3 304 408 409
3 310 415 407
3 270 409 410
3 450 348 347
3 422 430 434
3 313 314 17
3 306 307 375
3 387 388 260
3 286 414 398
3 335 406 418
3 364 367 416
3 423 358 327
3 251 284 298
3 281 5 4
3 373 374 253
3 307 320 321
3 425 427 411
3 421 313 18
3 321 405 406
3 320 404 405
3 315 16 17
3 426 425 266
3 377 400 369
3 322 391 269
3 417 465 464
3 386 257 258
3 466 260 388
3 456 399 419
3 284 332 333
3 417 285 8
3 346 340 261
3 413 441 285
3 327 460 328
3 355 371 329
3 392 439 438
3 382 341 256
3 429 420 360
3 364 394 379
3 277 343 437
3 443 444 283
3 275 440 363
3 431 262 369
3 297 338 337
3 273 375 321
3 450 451 349
3 446 342 467
3 293 334 282
3 458 461 462
3 276 353 383
3 308 324 325
3 276 300 293
3 372 345 447
3 352 345 340
3 274 1 19
3 456 248 281
3 436 427 425
3 381 256 252
3 269 391 393
3 200 199 428
3 266 330 329
3 287 273 422
3 250 462 328
3 258 286 384
3 265 353 342
3 387 259 257
3 424 431 430
3 342 353 276
3 273 335 424
3 292 325 307
3 366 447 345
3 271 303 302
3 423 266 371
3 294 455 460
3 279 278 294
3 271 272 304
3 432 434 427
3 272 407 408
3 394 430 431
3 395 369 400
3 334 333 299
3 351 417 168
3 352 280 411
3 325 319 320
3 295 296 336
3 319 403 404
3 330 348 349
3 293 298 333
3 323 454 447
3 15 16 315
3 358 429 279
3 14 15 316
3 285 336 9
3 329 349 350
3 374 380 252
3 318 402 403
3 6 197 419
3 318 319 325
3 367 364 365
3 435 367 397
3 344 438 439
3 272 271 311
3 195 5 281
3 273 287 291
3 396 428 199
3 311 271 268
3 283 444 445
3 373 254 339
3 282 334 296
3 449 347 346
3 264 447 454
3 336 296 299
3 338 10 151
3 278 439 455
3 292 407 415
3 358 371 355
3 340 345 372
3 346 347 280
3 442 443 282
3 19 94 370
3 441 442 295
3 248 419 197
3 263 255 359
3 440 275 274
3 300 383 368
3 351 412 465
3 263 467 466
3 301 368 389
3 395 378 379
3 412 351 419
3 436 426 322
3 2 164 393
3 370 462 461
3 164 0 267
3 302 11 12
3 268 12 13
3 293 300 301
3 446 261 340
3 330 266 425
3 426 423 391
3 429 355 437
3 391 327 326
3 440 457 438
3 341 382 362
3 459 457 461
3 434 430 394
3 414 463 362
3 396 369 262
3 354 461 457
3 316 403 402
3 315 404 403
3 314 405 404
3 313 406 405
3 421 418 406
3 366 401 361
3 306 408 407
3 291 409 408
3 287 410 409
3 432 436 410
3 434 416 411
3 264 368 383
3 309 438 457
3 352 376 401
3 274 275 4
3 421 428 262
3 294 327 358
3 433 416 367
3 289 455 439
3 462 370 326
3 2 326 370
3 305 460 455
3 254 449 448
3 255 261 446
3 253 450 449
3 252 451 450
3 256 452 451
3 341 453 452
3 413 464 463
3 441 413 414
3 258 442 441
3 257 443 442
3 259 444 443
3 260 445 444
3 467 342 445
3 459 458 250
3 289 392 290
3 290 328 460
3 376 433 435
3 250 290 392
3 411 416 433
3 341 463 464
3 453 464 465
3 357 465 412
3 343 412 399
3 360 363 440
3 437 399 456
3 420 456 363
3 401 435 288
3 372 383 353
3 339 255 249
3 448 261 255
3 133 243 190
3 133 155 112
3 33 246 247
3 33 130 25
3 398 384 286
3 362 398 414
3 362 463 341
3 263 359 467
3 263 249 255
3 466 467 260
3 75 60 166
3 238 239 79
3 162 127 139
3 72 11 37
3 121 232 120
3 73 72 39
3 114 128 47
3 233 232 128
3 103 104 67
3 152 175 148
3 119 118 101
3 74 73 40
3 107 9 108
3 49 48 131
3 32 194 211
3 184 74 185
3 191 80 183
3 185 40 186
3 119 230 118
3 210 202 214
3 84 83 17
3 77 76 146
3 161 160 30
3 190 56 173
3 182 106 194
3 138 135 192
3 129 203 98
3 54 21 68
3 5 51 4
3 145 144 23
3 90 77 91
3 207 205 187
3 83 201 18
3 181 91 182
3 180 90 181
3 16 85 17
3 205 206 36
3 176 148 140
3 165 92 39
3 245 193 244
3 27 159 28
3 30 247 161
3 174 236 196
3 103 54 104
3 55 193 8
3 111 117 31
3 221 189 55
3 240 98 99
3 142 126 100
3 219 166 218
3 112 155 26
3 198 209 131
3 169 135 150
3 114 47 217
3 224 223 53
3 220 45 134
3 32 211 140
3 109 67 108
3 146 43 91
3 231 230 120
3 113 226 247
3 105 63 52
3 241 238 242
3 124 46 156
3 95 78 96
3 70 46 63
3 116 143 227
3 116 123 111
3 1 44 19
3 3 236 51
3 207 216 205
3 26 154 22
3 165 39 167
3 199 200 208
3 101 36 100
3 43 57 202
3 242 20 99
3 56 28 157
3 124 35 113
3 29 160 27
3 211 204 210
3 124 113 46
3 106 43 204
3 96 62 77
3 227 137 116
3 73 41 72
3 36 203 142
3 235 64 240
3 48 49 64
3 42 41 74
3 214 212 207
3 183 42 184
3 210 169 211
3 140 170 176
3 104 105 69
3 193 122 168
3 50 123 187
3 89 96 90
3 66 65 107
3 179 89 180
3 119 101 120
3 68 63 104
3 234 93 227
3 16 15 85
3 209 129 49
3 15 14 86
3 107 55 9
3 120 100 121
3 153 145 22
3 178 88 179
3 197 6 196
3 89 88 96
3 135 138 136
3 138 215 172
3 218 115 219
3 41 42 81
3 5 195 51
3 57 43 61
3 208 171 199
3 41 81 38
3 224 53 225
3 24 144 110
3 105 52 66
3 118 229 117
3 227 34 234
3 66 107 69
3 10 109 151
3 219 48 235
3 183 62 191
3 142 129 126
3 116 111 143
3 118 117 50
3 223 222 52
3 94 19 141
3 222 221 65
3 196 3 197
3 45 220 44
3 156 70 139
3 188 122 245
3 139 71 162
3 149 170 150
3 122 188 196
3 206 216 92
3 164 2 167
3 242 141 241
3 0 164 37
3 11 72 12
3 12 38 13
3 70 63 71
3 31 226 111
3 36 101 205
3 203 206 165
3 126 209 217
3 98 165 97
3 237 220 218
3 237 239 241
3 210 214 169
3 140 171 32
3 241 125 237
3 179 86 178
3 180 85 179
3 181 84 180
3 182 83 181
3 194 201 182
3 177 137 132
3 184 76 183
3 185 61 184
3 186 57 185
3 216 212 186
3 192 214 187
3 139 34 156
3 218 79 237
3 147 123 177
3 45 44 4
3 208 201 32
3 98 64 129
3 192 213 138
3 235 59 219
3 141 242 97
3 97 2 141
3 240 75 235
3 229 24 228
3 31 25 226
3 230 23 229
3 231 22 230
3 232 26 231
3 233 112 232
3 244 189 243
3 189 221 190
3 222 28 221
3 223 27 222
3 224 29 223
3 225 30 224
3 113 247 225
3 99 60 240
3 213 147 215
3 60 20 166
3 192 187 213
3 243 112 244
3 244 233 245
3 245 128 188
3 188 114 174
3 134 131 220
3 174 217 236
3 236 198 134
3 215 177 58
3 156 143 124
3 25 110 7
3 31 228 25
3 264 356 368
3 0 11 267
3 451 452 349
3 267 302 269
3 350 357 277
3 350 452 357
3 299 333 297
3 396 175 377
3 280 347 330
3 269 303 270
3 151 9 337
3 344 278 360
3 424 418 431
3 270 304 409
3 272 310 407
3 322 270 410
3 449 450 347
3 432 422 434
3 18 313 17
3 291 306 375
3 259 387 260
3 424 335 418
3 434 364 416
3 391 423 327
3 301 251 298
3 275 281 4
3 254 373 253
3 375 307 321
3 280 425 411
3 200 421 18
3 335 321 406
3 321 320 405
3 314 315 17
3 423 426 266
3 396 377 369
3 270 322 269
3 413 417 464
3 385 386 258
3 248 456 419
3 298 284 333
3 168 417 8
3 448 346 261
3 417 413 285
3 326 327 328
3 277 355 329
3 309 392 438
3 381 382 256
3 279 429 360
3 365 364 379
3 355 277 437
3 282 443 283
3 281 275 363
3 395 431 369
3 299 297 337
3 335 273 321
3 348 450 349
3 359 446 467
3 283 293 282
3 250 458 462
3 300 276 383
3 292 308 325
3 283 276 293
3 264 372 447
3 346 352 340
3 354 274 19
3 363 456 281
3 426 436 425
3 380 381 252
3 267 269 393
3 421 200 428
3 371 266 329
3 432 287 422
3 290 250 328
3 385 258 384
3 446 265 342
3 386 387 257
3 422 424 430
3 445 342 276
3 422 273 424
3 306 292 307
3 352 366 345
3 268 271 302
3 358 423 371
3 327 294 460
3 331 279 294
3 303 271 304
3 436 432 427
3 304 272 408
3 395 394 431
3 378 395 400
3 296 334 299
3 6 351 168
3 376 352 411
3 307 325 320
3 285 295 336
3 320 319 404
3 329 330 349
3 334 293 333
3 366 323 447
3 316 15 315
3 331 358 279
3 317 14 316
3 8 285 9
3 277 329 350
3 253 374 252
3 319 318 403
3 351 6 419
3 324 318 325
3 397 367 365
3 288 435 397
3 278 344 439
3 310 272 311
3 248 195 281
3 375 273 291
3 175 396 199
3 312 311 268
3 276 283 445
3 390 373 339
3 295 282 296
3 448 449 346
3 356 264 454
3 337 336 299
3 337 338 151
3 294 278 455
3 308 292 415
3 429 358 355
3 265 340 372
3 352 346 280
3 295 442 282
3 354 19 370
3 285 441 295
3 195 248 197
3 457 440 274
3 301 300 368
3 417 351 465
3 251 301 389
3 394 395 379
3 399 412 419
3 410 436 322
3 326 2 393
3 354 370 461
3 393 164 267
3 268 302 12
3 312 268 13
3 298 293 301
3 265 446 340
3 280 330 425
3 322 426 391
3 420 429 437
3 393 391 326
3 344 440 438
3 458 459 461
3 364 434 394
3 428 396 262
3 274 354 457
3 317 316 402
3 316 315 403
3 315 314 404
3 314 313 405
3 313 421 406
3 323 366 361
3 292 306 407
3 306 291 408
3 291 287 409
3 287 432 410
3 427 434 411
3 372 264 383
3 459 309 457
3 366 352 401
3 1 274 4
3 418 421 262
3 331 294 358
3 435 433 367
3 392 289 439
3 328 462 326
3 94 2 370
3 289 305 455
3 339 254 448
3 359 255 446
3 254 253 449
3 253 252 450
3 252 256 451
3 256 341 452
3 414 413 463
3 286 441 414
3 286 258 441
3 258 257 442
3 257 259 443
3 259 260 444
3 260 467 445
3 309 459 250
3 305 289 290
3 305 290 460
3 401 376 435
3 309 250 392
3 376 411 433
3 453 341 464
3 357 453 465
3 343 357 412
3 437 343 399
3 344 360 440
3 420 437 456
3 360 420 363
3 361 401 288
3 265 372 353
3 390 339 249
3 339 448 255